<svg xmlns="http://www.w3.org/2000/svg" xmlns:xlink="http://www.w3.org/1999/xlink" version="1.1" viewBox="0 0 96 120" x="0px" y="0px" style="height: 512px; width: 512px;"><path d="M0 0h512v512H0z" fill="#000000" fill-opacity="1"></path><path d="M53.572 73.712c-0.1 0-0.212-0.008-0.312-0.024-0.752-0.124-1.376-0.656-1.592-1.392l-6.728-21.648-21.66-6.736c-0.732-0.228-1.26-0.844-1.388-1.588-0.112-0.752 0.204-1.508 0.82-1.944l18.524-13.092-0.288-22.672c-0.008-0.752 0.416-1.456 1.092-1.8 0.672-0.356 1.492-0.28 2.092 0.18l18.168 13.56 21.476-7.272c0.72-0.248 1.516-0.068 2.056 0.472 0.54 0.548 0.728 1.336 0.476 2.064l-7.272 21.48 13.564 18.168c0.452 0.6 0.524 1.42 0.18 2.1-0.344 0.664-1.032 1.084-1.78 1.084-0.008 0-0.016 0-0.032 0l-22.672-0.288-13.092 18.516c-0.376 0.52-0.992 0.832-1.632 0.832zM28.336 41.308l18.788 5.836c0.628 0.204 1.12 0.696 1.316 1.316l5.836 18.784 11.36-16.064c0.376-0.524 0.984-0.844 1.632-0.844 0.008 0 0.016 0 0.024 0l19.672 0.252-11.756-15.764c-0.392-0.532-0.5-1.22-0.28-1.836l6.304-18.632-18.624 6.312c-0.624 0.212-1.32 0.092-1.836-0.288l-15.764-11.76 0.252 19.676c0.008 0.656-0.308 1.276-0.844 1.656l-16.080 11.356z" fill="#FFFFFF"/><path d="M5 93.416c-0.516 0-1.028-0.196-1.416-0.584-0.78-0.78-0.78-2.056 0-2.828l33.084-33.084c0.776-0.78 2.048-0.78 2.828 0 0.776 0.78 0.776 2.048 0 2.828l-33.084 33.084c-0.388 0.388-0.904 0.584-1.412 0.584z" fill="#FFFFFF"/></svg>
